<mxfile host="65bd71144e">
    <diagram id="yqq_r7M412qpyj8VEe-U" name="Page-1">
        <mxGraphModel dx="1278" dy="872" grid="1" gridSize="10" guides="1" tooltips="1" connect="1" arrows="1" fold="1" page="1" pageScale="1" pageWidth="1169" pageHeight="827" math="0" shadow="0">
            <root>
                <mxCell id="0"/>
                <mxCell id="1" parent="0"/>
                <mxCell id="67" value="" style="edgeStyle=none;html=1;endArrow=classic;endFill=1;startSize=6;endSize=6;" edge="1" parent="1" source="32" target="36">
                    <mxGeometry relative="1" as="geometry"/>
                </mxCell>
                <mxCell id="76" style="edgeStyle=none;rounded=1;html=1;entryX=0;entryY=1;entryDx=0;entryDy=-15;entryPerimeter=0;dashed=1;endArrow=classic;endFill=1;startSize=6;endSize=6;" edge="1" parent="1" source="32" target="61">
                    <mxGeometry relative="1" as="geometry"/>
                </mxCell>
                <mxCell id="32" value="&lt;div style=&quot;&quot;&gt;&lt;span style=&quot;background-color: initial; font-size: 12px;&quot;&gt;Optical flow &lt;br&gt;(4 consecutive composites)&lt;/span&gt;&lt;br&gt;&lt;/div&gt;" style="rounded=1;whiteSpace=wrap;html=1;fontSize=8;fontColor=#000000;align=center;" parent="1" vertex="1">
                    <mxGeometry x="309.5" y="133.75" width="150" height="75" as="geometry"/>
                </mxCell>
                <mxCell id="66" value="" style="edgeStyle=none;html=1;endArrow=classic;endFill=1;startSize=6;endSize=6;" edge="1" parent="1" source="34" target="32">
                    <mxGeometry relative="1" as="geometry"/>
                </mxCell>
                <mxCell id="34" value="SUOMI1&lt;br style=&quot;border-color: var(--border-color);&quot;&gt;radar composite&lt;br style=&quot;border-color: var(--border-color);&quot;&gt;(PGM 1km)&lt;br style=&quot;border-color: var(--border-color);&quot;&gt;" style="shape=cylinder3;whiteSpace=wrap;html=1;boundedLbl=1;backgroundOutline=1;size=15;fontSize=12;fontColor=#000000;" parent="1" vertex="1">
                    <mxGeometry x="104.5" y="120" width="140" height="102.5" as="geometry"/>
                </mxCell>
                <mxCell id="35" value="&lt;b style=&quot;border-color: var(--border-color); background-color: initial; font-family: Monaco, Menlo, Consolas, &amp;quot;Courier New&amp;quot;, monospace; font-size: 8px; font-variant-ligatures: none; text-align: left;&quot;&gt;&lt;span style=&quot;border-color: var(--border-color); background-color: rgba(232, 232, 232, 0.04);&quot;&gt;Example path:&lt;br&gt;/arch/radar/storage/2021/06/23&lt;br&gt;&lt;/span&gt;&lt;/b&gt;&lt;b style=&quot;border-color: var(--border-color); background-color: initial; font-family: Monaco, Menlo, Consolas, &amp;quot;Courier New&amp;quot;, monospace; font-size: 8px; font-variant-ligatures: none; text-align: left;&quot;&gt;/fmi/radar/composite/lowest/&lt;br&gt;&lt;/b&gt;&lt;b style=&quot;border-color: var(--border-color); background-color: initial; font-family: Monaco, Menlo, Consolas, &amp;quot;Courier New&amp;quot;, monospace; font-size: 8px; font-variant-ligatures: none; text-align: left;&quot;&gt;202106232355_fmi.radar.composite.&lt;br&gt;lowest_FIN_SUOMI1.pgm.gz&lt;/b&gt;" style="text;html=1;align=center;verticalAlign=middle;resizable=0;points=[];autosize=1;strokeColor=none;fillColor=none;fontSize=12;fontColor=#000000;" parent="1" vertex="1">
                    <mxGeometry x="90" y="222.5" width="180" height="90" as="geometry"/>
                </mxCell>
                <mxCell id="68" value="" style="edgeStyle=none;html=1;endArrow=classic;endFill=1;startSize=6;endSize=6;" edge="1" parent="1" source="36" target="39">
                    <mxGeometry relative="1" as="geometry"/>
                </mxCell>
                <mxCell id="36" value="&lt;div style=&quot;&quot;&gt;&lt;span style=&quot;background-color: initial; font-size: 12px;&quot;&gt;Lagrangian transform&lt;/span&gt;&lt;br&gt;&lt;/div&gt;" style="rounded=1;whiteSpace=wrap;html=1;fontSize=8;fontColor=#000000;align=center;" parent="1" vertex="1">
                    <mxGeometry x="518.5" y="151.25" width="150" height="40" as="geometry"/>
                </mxCell>
                <mxCell id="69" value="" style="edgeStyle=none;html=1;endArrow=classic;endFill=1;startSize=6;endSize=6;" edge="1" parent="1" source="39" target="41">
                    <mxGeometry relative="1" as="geometry"/>
                </mxCell>
                <mxCell id="39" value="&lt;div style=&quot;&quot;&gt;&lt;span style=&quot;font-size: 12px;&quot;&gt;Composite crop &lt;br&gt;to 512 x512&lt;/span&gt;&lt;/div&gt;" style="rounded=1;whiteSpace=wrap;html=1;fontSize=8;fontColor=#000000;align=center;" parent="1" vertex="1">
                    <mxGeometry x="724.5" y="151.25" width="150" height="40" as="geometry"/>
                </mxCell>
                <mxCell id="70" value="" style="edgeStyle=none;html=1;endArrow=classic;endFill=1;startSize=6;endSize=6;" edge="1" parent="1" source="41" target="42">
                    <mxGeometry relative="1" as="geometry"/>
                </mxCell>
                <mxCell id="41" value="&lt;div style=&quot;&quot;&gt;&lt;span style=&quot;font-size: 12px;&quot;&gt;Estimate time derivative&lt;/span&gt;&lt;/div&gt;" style="rounded=1;whiteSpace=wrap;html=1;fontSize=8;fontColor=#000000;align=center;" parent="1" vertex="1">
                    <mxGeometry x="924.5" y="151.25" width="150" height="40" as="geometry"/>
                </mxCell>
                <mxCell id="71" value="" style="edgeStyle=none;html=1;endArrow=classic;endFill=1;startSize=6;endSize=6;" edge="1" parent="1" source="42" target="46">
                    <mxGeometry relative="1" as="geometry"/>
                </mxCell>
                <mxCell id="42" value="&lt;div style=&quot;&quot;&gt;&lt;span style=&quot;font-size: 12px;&quot;&gt;Apply&amp;nbsp; CNN&lt;/span&gt;&lt;/div&gt;" style="rounded=1;whiteSpace=wrap;html=1;fontSize=8;fontColor=#000000;align=center;" parent="1" vertex="1">
                    <mxGeometry x="1114.5" y="151.25" width="110" height="40" as="geometry"/>
                </mxCell>
                <mxCell id="74" value="" style="edgeStyle=none;html=1;endArrow=classic;endFill=1;startSize=6;endSize=6;" edge="1" parent="1" source="45" target="49">
                    <mxGeometry relative="1" as="geometry"/>
                </mxCell>
                <mxCell id="45" value="&lt;div style=&quot;&quot;&gt;&lt;span style=&quot;font-size: 12px;&quot;&gt;Extrapolate to Eulerian coordinates&lt;/span&gt;&lt;/div&gt;" style="rounded=1;whiteSpace=wrap;html=1;fontSize=8;fontColor=#000000;align=center;" parent="1" vertex="1">
                    <mxGeometry x="1434.5" y="151.25" width="200" height="40" as="geometry"/>
                </mxCell>
                <mxCell id="73" value="" style="edgeStyle=none;html=1;endArrow=classic;endFill=1;startSize=6;endSize=6;" edge="1" parent="1" source="46" target="45">
                    <mxGeometry relative="1" as="geometry"/>
                </mxCell>
                <mxCell id="46" value="&lt;div style=&quot;&quot;&gt;&lt;span style=&quot;font-size: 12px;&quot;&gt;Sum to obtain &lt;br&gt;rain rates&lt;/span&gt;&lt;/div&gt;" style="rounded=1;whiteSpace=wrap;html=1;fontSize=8;fontColor=#000000;align=center;" parent="1" vertex="1">
                    <mxGeometry x="1274.5" y="151.25" width="110" height="40" as="geometry"/>
                </mxCell>
                <mxCell id="49" value="&lt;div style=&quot;&quot;&gt;&lt;span style=&quot;font-size: 12px;&quot;&gt;Save output&lt;/span&gt;&lt;/div&gt;" style="rounded=1;whiteSpace=wrap;html=1;fontSize=8;fontColor=#000000;align=center;" parent="1" vertex="1">
                    <mxGeometry x="1684.5" y="151.25" width="130" height="40" as="geometry"/>
                </mxCell>
                <mxCell id="52" value="" style="verticalLabelPosition=bottom;shadow=0;dashed=0;align=center;html=1;verticalAlign=top;strokeWidth=1;shape=mxgraph.mockup.markup.curlyBrace;strokeColor=#999999;fontSize=12;fontColor=#000000;rotation=-180;" parent="1" vertex="1">
                    <mxGeometry x="309.5" y="222.5" width="359" height="20" as="geometry"/>
                </mxCell>
                <mxCell id="54" value="transform_fmi_composite_to_lagrangian.py&lt;br&gt;Input data handled with PyTorch Dataset&amp;nbsp;&lt;br&gt;FMIComposite.py" style="text;html=1;align=center;verticalAlign=middle;resizable=0;points=[];autosize=1;strokeColor=none;fillColor=none;fontSize=12;fontColor=#000000;" parent="1" vertex="1">
                    <mxGeometry x="370.5" y="240" width="270" height="60" as="geometry"/>
                </mxCell>
                <mxCell id="55" value="" style="verticalLabelPosition=bottom;shadow=0;dashed=0;align=center;html=1;verticalAlign=top;strokeWidth=1;shape=mxgraph.mockup.markup.curlyBrace;strokeColor=#999999;fontSize=12;fontColor=#000000;rotation=-180;" parent="1" vertex="1">
                    <mxGeometry x="724.5" y="222.5" width="359" height="20" as="geometry"/>
                </mxCell>
                <mxCell id="56" value="PyTorch Dataset&lt;br&gt;LagrangianFMIComposite.py" style="text;html=1;align=center;verticalAlign=middle;resizable=0;points=[];autosize=1;strokeColor=none;fillColor=none;fontSize=12;fontColor=#000000;" parent="1" vertex="1">
                    <mxGeometry x="799.5" y="250" width="190" height="40" as="geometry"/>
                </mxCell>
                <mxCell id="57" value="" style="verticalLabelPosition=bottom;shadow=0;dashed=0;align=center;html=1;verticalAlign=top;strokeWidth=1;shape=mxgraph.mockup.markup.curlyBrace;strokeColor=#999999;fontSize=12;fontColor=#000000;rotation=-180;" parent="1" vertex="1">
                    <mxGeometry x="1114.5" y="220" width="519" height="20" as="geometry"/>
                </mxCell>
                <mxCell id="58" value="PyTorch Lightning module&amp;nbsp;LCNN.py&amp;nbsp;" style="text;html=1;align=center;verticalAlign=middle;resizable=0;points=[];autosize=1;strokeColor=none;fillColor=none;fontSize=12;fontColor=#000000;" parent="1" vertex="1">
                    <mxGeometry x="1259.5" y="245" width="230" height="30" as="geometry"/>
                </mxCell>
                <mxCell id="59" value="utils/prediction_writers.py/&lt;br&gt;LagrangianHDF5Writer" style="text;html=1;align=center;verticalAlign=middle;resizable=0;points=[];autosize=1;strokeColor=none;fillColor=none;fontSize=12;fontColor=#000000;" parent="1" vertex="1">
                    <mxGeometry x="1669.5" y="212.5" width="180" height="40" as="geometry"/>
                </mxCell>
                <mxCell id="65" value="" style="edgeStyle=none;html=1;dashed=1;" edge="1" parent="1" source="61" target="36">
                    <mxGeometry relative="1" as="geometry"/>
                </mxCell>
                <mxCell id="75" style="edgeStyle=none;html=1;entryX=0;entryY=0;entryDx=0;entryDy=0;endArrow=classic;endFill=1;startSize=6;endSize=6;rounded=1;dashed=1;" edge="1" parent="1" source="61" target="45">
                    <mxGeometry relative="1" as="geometry">
                        <Array as="points">
                            <mxPoint x="1054.5" y="80"/>
                        </Array>
                    </mxGeometry>
                </mxCell>
                <mxCell id="61" value="Motion field" style="shape=cylinder3;whiteSpace=wrap;html=1;boundedLbl=1;backgroundOutline=1;size=15;fontSize=12;fontColor=#000000;" parent="1" vertex="1">
                    <mxGeometry x="536" y="20" width="115" height="60" as="geometry"/>
                </mxCell>
            </root>
        </mxGraphModel>
    </diagram>
</mxfile>
